<svg xmlns="http://www.w3.org/2000/svg" viewBox="0 0 397.92 397.93"><defs><style>.cls-1{fill:#fff;}</style></defs><title>Asset 2</title><g id="Layer_2" data-name="Layer 2"><g id="Layer_1-2" data-name="Layer 1"><path class="cls-1" d="M199,0C89.07,0,0,89.08,0,199s89.07,199,199,199,199-89.08,199-199S308.84,0,199,0Zm0,365.53A166.57,166.57,0,1,1,365.52,199,166.56,166.56,0,0,1,199,365.53Z"/><path class="cls-1" d="M76.3,162.93V144.86a17.14,17.14,0,0,1,5.36-12.49A17.37,17.37,0,0,1,94.37,127h73l24.09,35.91Zm91,108h-73A18.29,18.29,0,0,1,76.3,252.84V170.07h36.14V235h79Z"/><path class="cls-1" d="M205.35,162.57V144.32a17.33,17.33,0,0,1,5.4-12.62,17.58,17.58,0,0,1,12.85-5.4h73.68l24.34,36.27Zm98.24,109.06h-80a18.46,18.46,0,0,1-18.25-18.25v-83.6h36.5v65.57h43.49V217.1H273.4l-24.34-36.27h72.56v72.55a17.89,17.89,0,0,1-5.19,12.84A17.05,17.05,0,0,1,303.59,271.63Z"/></g></g></svg>