<svg xmlns="http://www.w3.org/2000/svg" xmlns:xlink="http://www.w3.org/1999/xlink" viewBox="0 0 1437.12 894.22"><defs><style>.cls-1{fill:none;}.cls-2{clip-path:url(#clip-path);}.cls-3{fill:#ff664b;}.cls-4{fill:#fff;}</style><clipPath id="clip-path"><rect class="cls-1" y="126.22" width="1366" height="768"/></clipPath></defs><title>bg</title><g id="Layer_2" data-name="Layer 2"><g id="Layer_1-2" data-name="Layer 1"><g class="cls-2"><rect class="cls-3" y="126.22" width="1366" height="768"/><path class="cls-4" d="M667.51,204.5,540.76,325a27.24,27.24,0,0,0-1,38.52L660.37,490.37a27.24,27.24,0,0,0,38.52,1L825.65,370.83a27.25,27.25,0,0,0,1-38.52L706,205.47A27.26,27.26,0,0,0,667.51,204.5ZM661.8,430.44l-62.09-65.31a27.25,27.25,0,0,1,1-38.53L666,264.51a27.24,27.24,0,0,1,38.52,1l62.1,65.32a27.24,27.24,0,0,1-1,38.52l-65.31,62.1A27.25,27.25,0,0,1,661.8,430.44Z"/><path class="cls-4" d="M1270.51,7.5,1143.76,128a27.24,27.24,0,0,0-1,38.52l120.59,126.84a27.24,27.24,0,0,0,38.52,1l126.76-120.51a27.25,27.25,0,0,0,1-38.52L1309,8.47A27.26,27.26,0,0,0,1270.51,7.5Zm-5.71,225.94-62.09-65.31a27.25,27.25,0,0,1,1-38.53L1269,67.51a27.24,27.24,0,0,1,38.52,1l62.1,65.32a27.24,27.24,0,0,1-1,38.52l-65.31,62.1A27.25,27.25,0,0,1,1264.8,233.44Z"/><path class="cls-4" d="M394,540a147.54,147.54,0,0,0,0,295.08c81.4,0,147.54-66.14,147.54-147.54A147.57,147.57,0,0,0,394,540Zm0,243.32a95.84,95.84,0,1,1,95.78-95.78A95.8,95.8,0,0,1,394,783.33Z"/><path class="cls-4" d="M1214.64,615.17l-1.34-2.36L1101.12,416.54l-26.83-46.82-2.7,1.57-26,45.14.44.75-.44.77L932.47,614.33l-.53.84h0v0l0,0,0,0v14.22a33.82,33.82,0,0,0,33.82,33.82h215.07a33.82,33.82,0,0,0,33.82-33.82v-14.3Zm-226.71-.84,85.34-148,.44-.76,84.12,147.23,1.34,2.36H987.45Z"/><path class="cls-4" d="M281.19,378.9l-51.6-51.6a13.21,13.21,0,0,1,0-18.7l51.6-51.6a13.23,13.23,0,0,0,0-18.7l-7-7a13.23,13.23,0,0,0-18.7,0l-51.6,51.6a13.24,13.24,0,0,1-18.71,0l-51.59-51.6a13.24,13.24,0,0,0-18.71,0l-7,7a13.21,13.21,0,0,0,0,18.7l51.59,51.6a13.21,13.21,0,0,1,0,18.7l-51.59,51.6a13.21,13.21,0,0,0,0,18.7l7,7a13.22,13.22,0,0,0,18.71,0L185.2,353a13.24,13.24,0,0,1,18.71,0l51.6,51.6a13.21,13.21,0,0,0,18.7,0l7-7A13.23,13.23,0,0,0,281.19,378.9Z"/></g></g></g></svg>